<?xml version="1.0" standalone="no"?>
<!DOCTYPE svg PUBLIC "-//W3C//DTD SVG 20010904//EN"
 "http://www.w3.org/TR/2001/REC-SVG-20010904/DTD/svg10.dtd">
<svg version="1.0" xmlns="http://www.w3.org/2000/svg"
 width="700.000000pt" height="700.000000pt" viewBox="0 0 700.000000 700.000000"
 preserveAspectRatio="xMidYMid meet">
<metadata>
Created by potrace 1.11, written by Peter Selinger 2001-2013
</metadata>
<g transform="translate(0.000000,700.000000) scale(0.100000,-0.100000)"
fill="#000000" stroke="none">
<path d="M3399 6403 c0 -5 -1 -95 -1 -200 l-1 -193 -192 0 -193 0 -3 -32 c-2
-18 -2 -65 1 -103 l5 -71 190 0 190 1 1 -487 1 -487 -41 47 c-161 183 -354
291 -591 330 -83 13 -287 4 -367 -17 -291 -76 -519 -265 -644 -535 -41 -89
-72 -219 -74 -304 l0 -23 -42 29 c-141 96 -311 142 -511 136 -307 -8 -565
-178 -692 -457 -50 -111 -69 -203 -68 -342 0 -173 35 -290 160 -545 81 -164
293 -519 315 -528 5 -2 8 -8 8 -14 0 -6 22 -41 50 -79 27 -38 50 -71 50 -74 0
-3 6 -13 14 -22 27 -33 82 -108 116 -158 18 -27 36 -52 39 -55 4 -3 33 -41 66
-85 32 -44 64 -85 69 -92 6 -7 27 -33 46 -59 66 -88 285 -360 416 -515 l130
-157 0 -361 -1 -361 30 -1 c210 -3 3270 2 3274 7 3 3 6 166 6 362 l0 357 130
155 c172 205 246 297 330 405 38 50 72 92 75 95 10 8 207 272 291 390 89 123
258 377 315 470 21 36 44 72 49 81 133 220 262 519 281 650 9 66 11 209 3 254
-4 22 -10 58 -13 80 -10 58 -74 202 -119 265 -99 137 -217 230 -364 286 -102
39 -171 49 -308 48 -172 -3 -340 -51 -459 -134 l-46 -31 -1 28 c0 15 -2 37 -4
48 -2 11 -7 40 -10 64 -8 54 -38 149 -61 193 -10 18 -19 38 -20 43 -4 23 -112
170 -159 219 -154 156 -357 260 -556 285 -72 9 -239 7 -289 -3 -14 -3 -38 -8
-55 -12 -191 -39 -407 -172 -531 -328 l-31 -39 1 489 1 489 193 -1 192 0 1 33
c0 18 1 63 1 101 l1 67 -194 5 -194 5 -2 180 c0 99 -2 188 -2 198 -1 15 -13
17 -101 17 -55 0 -100 -3 -101 -7z"/>
</g>
</svg>
